<svg width="32" height="32" viewBox="0 0 32 32" fill="none" xmlns="http://www.w3.org/2000/svg">
<g clip-path="url(#clip0_6745_6166)">
<path d="M17.3791 27.3709C4.83758 30.1876 -1.06376 15.3761 6.79135 7.25831C-0.796734 20.0168 15.3986 32.1194 25.1452 21.8991C23.3687 24.6817 20.5791 26.6471 17.3791 27.3709Z" fill="#7C2D12"/>
<path d="M17.3791 27.3709C4.83758 30.1876 -1.06376 15.3761 6.79135 7.25831C-3.46703 20.2639 14.9958 34.1252 25.1452 21.8991C23.3687 24.6817 20.5791 26.6471 17.3791 27.3709Z" fill="#7C2D12"/>
<path d="M11.1767 5.14019C9.13119 9.17768 8.36648 13.8187 8.77558 18.5646C7.2944 13.8918 7.31644 8.86566 8.83852 4.20627L11.1767 5.14019Z" fill="#7C2D12"/>
<path d="M8.77558 18.5646C7.2944 13.8918 7.31644 8.86566 8.83852 4.20627L9.78262 4.58746C8.63712 7.55443 7.564 13.9013 8.77558 18.5646Z" fill="#7C2D12"/>
<path d="M19.576 7.64971C17.0585 10.5976 14.7769 14.0252 13.3325 17.9991C13.7479 13.968 15.2521 9.86064 17.4928 6.20435L19.576 7.64971Z" fill="#7C2D12"/>
<path d="M18.4841 6.88732C16.2182 9.80028 14.0783 14.1459 13.3325 18.0055C13.7479 13.968 15.2521 9.86064 17.4928 6.20435L18.4841 6.88732Z" fill="#7C2D12"/>
<path d="M12.4386 29.6351C11.0027 27.0855 10.0637 24.282 9.67243 21.3759C9.44927 19.7982 9.37131 18.2031 9.43955 16.611C9.6183 12.6621 10.5803 8.78955 12.2687 5.22278C12.5519 4.62557 12.8551 4.03578 13.1782 3.4534L16.7594 5.48961C12.4764 12.4972 10.3176 21.2393 12.4386 29.6351Z" fill="#7C2D12"/>
<g style="mix-blend-mode:screen">
<path d="M12.4388 29.6351C11.0028 27.0855 10.0639 24.282 9.67261 21.3759C9.47287 19.7961 9.39501 18.203 9.43973 16.611C9.61848 12.6621 10.5805 8.78954 12.2689 5.22277C13.065 4.20308 13.9147 3.99978 14.6637 4.98453C12.143 8.08173 8.96454 19.111 12.4388 29.6351Z" fill="#7C2D12"/>
</g>
<path d="M27.0848 4.74311C22.1724 12.1764 7.71207 3.22469 3.01678 5.74057C8.06767 -1.07646 21.842 7.29076 27.0848 4.74311Z" fill="#7C2D12"/>
<path d="M27.0848 4.74311C22.0717 8.46929 8.78518 1.57284 3.01678 5.74057C8.06767 -1.07646 21.842 7.29076 27.0848 4.74311Z" fill="#7C2D12"/>
</g>
<defs>
<clipPath id="clip0_6745_6166">
<rect width="32" height="32" fill="white"/>
</clipPath>
</defs>
</svg>
