<svg width="21" height="21" viewBox="0 0 21 21" fill="none" xmlns="http://www.w3.org/2000/svg">
<path d="M6.27509 4.75101L6.27503 4.75098C5.28209 4.14595 4.14588 5.28213 4.75085 6.27508L6.27509 4.75101ZM6.27509 4.75101C6.55859 4.92371 6.87886 5.02702 7.20983 5.05256C7.54081 5.0781 7.87314 5.02513 8.17977 4.89797C8.48641 4.77081 8.75869 4.57304 8.97446 4.32077C9.19015 4.0686 9.34327 3.76908 9.42139 3.44657C9.69226 2.33595 11.2524 2.31823 11.5644 3.3934L11.5775 3.44737M6.27509 4.75101L11.5775 3.44737M17.0036 12.4052C17.1959 12.2405 17.4244 12.1234 17.6705 12.0635M17.0036 12.4052L16.6783 12.0255C16.9303 11.8096 17.2298 11.6561 17.5523 11.5777L17.5525 11.5777C18.6828 11.3032 18.6814 9.6959 17.5528 9.4226L17.5527 9.42259C17.23 9.34441 16.9303 9.19111 16.678 8.97517C16.4258 8.75924 16.2281 8.48678 16.101 8.17998C15.974 7.87317 15.9212 7.5407 15.947 7.20964C15.9727 6.87869 16.0762 6.5585 16.2491 6.27513L17.6705 12.0635M17.0036 12.4052C16.8113 12.57 16.6605 12.7778 16.5637 13.0118C16.4668 13.2458 16.4265 13.4993 16.446 13.7518C16.4655 14.0043 16.5444 14.2486 16.6761 14.4649L6.27503 16.2492C6.55841 16.0763 6.8786 15.9728 7.20955 15.9471C7.54061 15.9213 7.87308 15.9741 8.17988 16.1011C8.48668 16.2282 8.75914 16.4259 8.97508 16.6781C9.19096 16.9303 9.34423 17.2299 9.42244 17.5526M17.0036 12.4052L16.6783 12.0255C16.4262 12.2415 16.2287 12.5138 16.1017 12.8205C15.9747 13.1272 15.9219 13.4595 15.9475 13.7904C15.9731 14.1213 16.0764 14.4415 16.2491 14.725L16.2491 14.7251C16.8542 15.718 15.7179 16.8543 14.725 16.2492L14.7249 16.2492C14.4414 16.0765 14.1212 15.9732 13.7903 15.9476C13.4594 15.922 13.1271 15.9748 12.8204 16.1018C12.5137 16.2288 12.2414 16.4263 12.0254 16.6784L12.4051 17.0037L12.0254 16.6784C11.8095 16.9304 11.6561 17.2299 11.5776 17.5524L11.5775 17.5529C11.3042 18.6815 9.69688 18.6829 9.42244 17.5526M17.6705 12.0635C19.3095 11.6656 19.3095 9.33355 17.6705 8.93665V12.0635ZM9.42244 17.5526L8.93655 17.6705M9.42244 17.5526C9.42246 17.5527 9.42248 17.5527 9.4225 17.5528L8.93655 17.6705M8.93655 17.6705C8.87691 17.4243 8.75996 17.1957 8.59523 17.0033C8.4305 16.8108 8.22264 16.66 7.98859 16.5631C7.75454 16.4662 7.50091 16.4259 7.24835 16.4455C6.99579 16.4652 6.75144 16.5442 6.5352 16.6762M8.93655 17.6705L6.5352 16.6762M6.5352 16.6762L6.27474 16.2494C6.27479 16.2494 6.27483 16.2493 6.27488 16.2493C5.28206 16.8541 4.1461 15.7182 4.7507 14.7254C4.92369 14.4419 5.02728 14.1216 5.05305 13.7906C5.07882 13.4595 5.02603 13.127 4.89899 12.8202C4.77195 12.5134 4.57425 12.241 4.32198 12.025C4.06971 11.8091 3.77001 11.6558 3.44728 11.5776L3.44723 11.5776C2.31862 11.3043 2.31717 9.69697 3.44752 9.42253L3.44764 9.4225C4.83485 9.08533 5.49415 7.4947 4.75088 6.27513L6.5352 16.6762ZM6.5352 16.6762C5.0946 17.554 3.4461 15.9055 4.3239 14.4649L6.5352 16.6762ZM11.5775 3.44737C11.6557 3.7701 11.809 4.0698 12.0249 4.32207C12.2409 4.57434 12.5133 4.77205 12.8201 4.89909C13.1269 5.02613 13.4594 5.07891 13.7905 5.05314C14.1214 5.02738 14.4416 4.92385 14.725 4.75098L11.5775 3.44737ZM14.7251 4.75089C15.718 4.14611 16.8539 5.28199 16.2493 6.27483L14.7251 4.75089ZM10.5 14.1501C11.468 14.1501 12.3964 13.7655 13.0809 13.081C13.7655 12.3965 14.15 11.4681 14.15 10.5001C14.15 9.53206 13.7655 8.60367 13.0809 7.91916C12.3964 7.23465 11.468 6.8501 10.5 6.8501C9.53196 6.8501 8.60357 7.23465 7.91906 7.91916C7.23456 8.60367 6.85 9.53206 6.85 10.5001C6.85 11.4681 7.23456 12.3965 7.91906 13.081C8.60357 13.7655 9.53196 14.1501 10.5 14.1501Z" fill="white" stroke="white"/>
</svg>
