<svg width="21" height="21" viewBox="0 0 21 21" fill="none" xmlns="http://www.w3.org/2000/svg">
<path d="M4.20001 5.79995H3.70001V6.29995V12.0198C3.46422 11.9422 3.24744 11.8101 3.06864 11.6313C2.76858 11.3313 2.60001 10.9243 2.60001 10.5V6.29995C2.60001 5.8756 2.76858 5.46864 3.06864 5.16858C3.36869 4.86852 3.77566 4.69995 4.20001 4.69995H12.6C13.0244 4.69995 13.4313 4.86852 13.7314 5.16858C13.9102 5.34739 14.0423 5.56416 14.1199 5.79995H4.20001ZM6.80001 10.5C6.80001 10.0756 6.96858 9.66864 7.26863 9.36858C7.56869 9.06852 7.97566 8.89995 8.40001 8.89995H16.8C17.2244 8.89995 17.6313 9.06852 17.9314 9.36858C18.2314 9.66864 18.4 10.0756 18.4 10.5V14.7C18.4 15.1243 18.2314 15.5313 17.9314 15.8313C17.6313 16.1314 17.2244 16.3 16.8 16.3H8.40001C7.97566 16.3 7.56869 16.1314 7.26863 15.8313C6.96858 15.5313 6.80001 15.1243 6.80001 14.7V10.5ZM12.6 15.2C13.2896 15.2 13.9509 14.926 14.4385 14.4384C14.9261 13.9508 15.2 13.2895 15.2 12.6C15.2 11.9104 14.9261 11.2491 14.4385 10.7615C13.9509 10.2739 13.2896 9.99995 12.6 9.99995C11.9104 9.99995 11.2491 10.2739 10.7615 10.7615C10.2739 11.2491 10 11.9104 10 12.6C10 13.2895 10.2739 13.9508 10.7615 14.4384C11.2491 14.926 11.9104 15.2 12.6 15.2Z" fill="white" stroke="white"/>
</svg>
