<svg width="21" height="21" viewBox="0 0 21 21" fill="none" xmlns="http://www.w3.org/2000/svg">
<path d="M7.85001 9.4501C7.85001 9.02575 8.01858 8.61878 8.31864 8.31873C8.61869 8.01867 9.02566 7.8501 9.45001 7.8501H15.75C16.1744 7.8501 16.5813 8.01867 16.8814 8.31873C17.1814 8.61879 17.35 9.02575 17.35 9.4501V15.7501C17.35 16.1744 17.1814 16.5814 16.8814 16.8815C16.5813 17.1815 16.1744 17.3501 15.75 17.3501H9.45001C9.02566 17.3501 8.61869 17.1815 8.31864 16.8815C8.01858 16.5814 7.85001 16.1744 7.85001 15.7501V9.4501Z" fill="white" stroke="white"/>
<path d="M5.24999 3.1499C4.69304 3.1499 4.1589 3.37115 3.76507 3.76498C3.37124 4.1588 3.14999 4.69295 3.14999 5.2499V11.5499C3.14999 12.1069 3.37124 12.641 3.76507 13.0348C4.1589 13.4287 4.69304 13.6499 5.24999 13.6499V5.2499H13.65C13.65 4.69295 13.4287 4.1588 13.0349 3.76498C12.6411 3.37115 12.1069 3.1499 11.55 3.1499H5.24999Z" fill="white"/>
</svg>
