<svg width="32" height="32" viewBox="0 0 32 32" fill="none" xmlns="http://www.w3.org/2000/svg">
<g clip-path="url(#clip0_6950_1394)">
<path d="M17.3791 27.3708C4.83761 30.1876 -1.06373 15.3761 6.79138 7.25828C-0.796704 20.0168 15.3986 32.1193 25.1452 21.8991C23.3687 24.6816 20.5792 26.6471 17.3791 27.3708Z" fill="white"/>
<path d="M17.3791 27.3708C4.83761 30.1876 -1.06373 15.3761 6.79138 7.25828C-3.467 20.2638 14.9959 34.1252 25.1452 21.8991C23.3687 24.6816 20.5792 26.6471 17.3791 27.3708Z" fill="white"/>
<path d="M11.1768 5.14023C9.13122 9.17771 8.36651 13.8188 8.77561 18.5646C7.29443 13.8918 7.31647 8.86569 8.83855 4.2063L11.1768 5.14023Z" fill="white"/>
<path d="M8.77561 18.5646C7.29443 13.8918 7.31647 8.86569 8.83855 4.2063L9.78265 4.58749C8.63715 7.55446 7.56403 13.9013 8.77561 18.5646Z" fill="white"/>
<path d="M19.5761 7.64971C17.0585 10.5976 14.7769 14.0252 13.3325 17.9991C13.7479 13.968 15.2521 9.86064 17.4928 6.20435L19.5761 7.64971Z" fill="white"/>
<path d="M18.4841 6.88732C16.2183 9.80028 14.0783 14.1459 13.3325 18.0055C13.7479 13.968 15.2521 9.86064 17.4928 6.20435L18.4841 6.88732Z" fill="white"/>
<path d="M12.4387 29.6351C11.0027 27.0855 10.0637 24.2819 9.67247 21.3759C9.44932 19.7982 9.37136 18.2031 9.4396 16.6109C9.61834 12.662 10.5804 8.78952 12.2687 5.22275C12.552 4.62554 12.8551 4.03575 13.1782 3.45337L16.7595 5.48958C12.4764 12.4972 10.3176 21.2393 12.4387 29.6351Z" fill="white"/>
<g style="mix-blend-mode:screen">
<path d="M12.4388 29.6351C11.0028 27.0855 10.0639 24.2819 9.67259 21.3759C9.47285 19.796 9.39499 18.2029 9.43972 16.6109C9.61846 12.662 10.5805 8.78951 12.2688 5.22274C13.065 4.20305 13.9147 3.99975 14.6637 4.9845C12.143 8.0817 8.96452 19.1109 12.4388 29.6351Z" fill="white"/>
</g>
<path d="M27.0849 4.74311C22.1724 12.1764 7.7121 3.22469 3.01682 5.74057C8.0677 -1.07646 21.842 7.29076 27.0849 4.74311Z" fill="white"/>
<path d="M27.0849 4.74311C22.0717 8.46929 8.78521 1.57284 3.01682 5.74057C8.0677 -1.07646 21.842 7.29076 27.0849 4.74311Z" fill="white"/>
</g>
<defs>
<clipPath id="clip0_6950_1394">
<rect width="32" height="32" fill="white"/>
</clipPath>
</defs>
</svg>
