<svg width="21" height="21" viewBox="0 0 21 21" fill="none" xmlns="http://www.w3.org/2000/svg">
<path d="M2.7611 17.1888L2.40754 17.5424L2.7611 17.1888C2.65795 17.0857 2.60001 16.9458 2.60001 16.7999V4.1999C2.60001 4.05403 2.65795 3.91414 2.7611 3.81099C2.86424 3.70785 3.00414 3.6499 3.15001 3.6499C3.29588 3.6499 3.43577 3.70785 3.53892 3.81099C3.64206 3.91414 3.70001 4.05403 3.70001 4.1999V16.7999C3.70001 16.9458 3.64206 17.0857 3.53892 17.1888L3.89247 17.5424L3.53891 17.1888C3.43577 17.292 3.29588 17.3499 3.15001 17.3499C3.00414 17.3499 2.86424 17.292 2.7611 17.1888ZM13.7153 6.9394L14.1781 7.12873C14.2057 7.06114 14.2466 6.99973 14.2982 6.94809C14.3498 6.89645 14.4112 6.85561 14.4788 6.82796C14.5464 6.8003 14.6189 6.78639 14.6919 6.78702C14.7649 6.78766 14.8371 6.80283 14.9042 6.83165C14.9713 6.86048 15.032 6.90238 15.0827 6.95491L15.0827 6.95496L15.0888 6.96111L18.2388 10.1111C18.2388 10.1111 18.2388 10.1111 18.2388 10.1111C18.3419 10.2142 18.3998 10.3541 18.3998 10.4999C18.3998 10.6457 18.3419 10.7856 18.2388 10.8887C18.2388 10.8887 18.2388 10.8887 18.2388 10.8888L15.0923 14.0352C14.9889 14.1337 14.8511 14.1882 14.7081 14.187C14.5639 14.1857 14.426 14.1279 14.324 14.0259C14.222 13.9239 14.1642 13.786 14.1629 13.6418C14.1617 13.4988 14.2162 13.361 14.3148 13.2576L15.6689 11.9035L16.5224 11.0499H15.3153H7.35001C7.20414 11.0499 7.06424 10.992 6.9611 10.8888C6.85795 10.7857 6.80001 10.6458 6.80001 10.4999C6.80001 10.354 6.85795 10.2141 6.9611 10.111C7.06424 10.0078 7.20414 9.9499 7.35001 9.9499H15.3153H16.5224L15.6689 9.09635L14.3112 7.7387L14.3113 7.73865L14.305 7.73261C14.2525 7.68187 14.2106 7.62118 14.1818 7.55408C14.1529 7.48698 14.1378 7.41481 14.1371 7.34178C14.1365 7.26875 14.1504 7.19633 14.1781 7.12874L13.7153 6.9394Z" fill="white" stroke="white"/>
</svg>
