<svg width="21" height="21" viewBox="0 0 21 21" fill="none" xmlns="http://www.w3.org/2000/svg">
<path d="M3.7 18.3999V15.7502V15.7499H4.2C4.19877 14.8541 4.38944 13.9704 4.75684 13.1577L3.7 18.3999ZM3.7 18.3999H1.55V15.7499L1.55 15.7497C1.54983 15.3452 1.64228 14.946 1.82026 14.5827C1.99823 14.2194 2.25702 13.9017 2.57678 13.6539C2.89653 13.4061 3.26878 13.2348 3.66498 13.1531C3.85368 13.1142 4.04543 13.0962 4.23684 13.0988L3.7 18.3999ZM17.3 15.7506L17.3 18.3999H19.45V15.7508C19.4493 15.3464 19.3563 14.9475 19.178 14.5846C18.9997 14.2216 18.7408 13.9042 18.4212 13.6565C18.1016 13.4088 17.7296 13.2374 17.3336 13.1554C17.1456 13.1164 16.9546 13.0981 16.7638 13.1003C17.1179 13.9362 17.3012 14.8372 17.3 15.7499C17.3 15.7501 17.3 15.7504 17.3 15.7506ZM17.3 15.7506L16.8 15.7499M17.9314 9.53127L18.2849 9.88483L17.9314 9.53127C17.6313 9.83133 17.2243 9.9999 16.8 9.9999C16.3757 9.9999 15.9687 9.83133 15.6686 9.53127C15.3686 9.23121 15.2 8.82425 15.2 8.3999C15.2 7.97556 15.3686 7.56859 15.6686 7.26853C15.9687 6.96847 16.3757 6.7999 16.8 6.7999C17.2243 6.7999 17.6313 6.96847 17.9314 7.26853C18.2314 7.56859 18.4 7.97556 18.4 8.3999C18.4 8.82425 18.2314 9.23121 17.9314 9.53127ZM13.15 6.2999C13.15 7.00273 12.8708 7.67676 12.3738 8.17374C11.8769 8.67071 11.2028 8.9499 10.5 8.9499C9.79718 8.9499 9.12314 8.67071 8.62617 8.17374C8.1292 7.67676 7.85 7.00273 7.85 6.2999C7.85 5.59708 8.1292 4.92304 8.62617 4.42607C9.12314 3.9291 9.79718 3.6499 10.5 3.6499C11.2028 3.6499 11.8769 3.9291 12.3738 4.42607C12.8708 4.92304 13.15 5.59708 13.15 6.2999ZM13.1163 13.1336C13.8102 13.8275 14.2 14.7686 14.2 15.7499V18.3999H6.8V15.7499C6.8 14.7686 7.18982 13.8275 7.88371 13.1336C8.57759 12.4397 9.5187 12.0499 10.5 12.0499C11.4813 12.0499 12.4224 12.4397 13.1163 13.1336ZM5.8 8.3999C5.8 8.82425 5.63143 9.23121 5.33137 9.53127C5.03132 9.83133 4.62435 9.9999 4.2 9.9999C3.77566 9.9999 3.36869 9.83133 3.06863 9.53127C2.76857 9.23121 2.6 8.82425 2.6 8.3999C2.6 7.97556 2.76857 7.56859 3.06863 7.26853C3.36869 6.96847 3.77566 6.7999 4.2 6.7999C4.62435 6.7999 5.03132 6.96847 5.33137 7.26853C5.63143 7.56859 5.8 7.97556 5.8 8.3999Z" fill="white" stroke="white"/>
</svg>
