<svg width="21" height="21" viewBox="0 0 21 21" fill="none" xmlns="http://www.w3.org/2000/svg">
<path d="M12.8257 12.4355C13.6885 13.7225 14.1522 15.2413 14.15 16.7999L12.8257 12.4355ZM12.8257 12.4355C13.4161 12.1819 14.0536 12.05 14.7 12.05C15.5338 12.05 16.3529 12.2695 17.075 12.6864C17.797 13.1033 18.3967 13.7029 18.8136 14.425C19.2305 15.147 19.45 15.9661 19.45 16.7999V17.3499H14.1312C14.1436 17.1684 14.15 16.9851 14.15 16.8C14.15 16.8002 14.15 16.8004 14.15 16.8006L12.8257 12.4355ZM8.95 6.2999C8.95 7.00273 8.67081 7.67676 8.17384 8.17374C7.67687 8.67071 7.00283 8.9499 6.3 8.9499C5.59718 8.9499 4.92314 8.67071 4.42617 8.17374C3.9292 7.67676 3.65 7.00273 3.65 6.2999C3.65 5.59708 3.9292 4.92304 4.42617 4.42607C4.92314 3.9291 5.59718 3.6499 6.3 3.6499C7.00283 3.6499 7.67687 3.9291 8.17384 4.42607C8.67081 4.92304 8.95 5.59708 8.95 6.2999ZM17.35 6.2999C17.35 6.64791 17.2815 6.9925 17.1483 7.31401C17.0151 7.63553 16.8199 7.92766 16.5738 8.17374C16.3278 8.41981 16.0356 8.61501 15.7141 8.74818C15.3926 8.88136 15.048 8.9499 14.7 8.9499C14.352 8.9499 14.0074 8.88136 13.6859 8.74818C13.3644 8.61501 13.0722 8.41981 12.8262 8.17374C12.5801 7.92766 12.3849 7.63553 12.2517 7.31401C12.1185 6.9925 12.05 6.64791 12.05 6.2999C12.05 5.59708 12.3292 4.92304 12.8262 4.42607C13.3231 3.9291 13.9972 3.6499 14.7 3.6499C15.4028 3.6499 16.0769 3.9291 16.5738 4.42607C17.0708 4.92304 17.35 5.59708 17.35 6.2999ZM6.3 12.0499C7.55978 12.0499 8.76796 12.5503 9.65876 13.4411C10.5496 14.3319 11.05 15.5401 11.05 16.7999V17.3499H1.55V16.7999C1.55 15.5401 2.05045 14.3319 2.94125 13.4411C3.83204 12.5503 5.04022 12.0499 6.3 12.0499Z" fill="white" stroke="white"/>
</svg>
